<?xml version="1.0" encoding="UTF-8" standalone="no"?>
<!-- Created with Inkscape (http://www.inkscape.org/) -->

<svg
   xmlns:dc="http://purl.org/dc/elements/1.1/"
   xmlns:cc="http://creativecommons.org/ns#"
   xmlns:rdf="http://www.w3.org/1999/02/22-rdf-syntax-ns#"
   xmlns:svg="http://www.w3.org/2000/svg"
   xmlns="http://www.w3.org/2000/svg"
   xmlns:sodipodi="http://sodipodi.sourceforge.net/DTD/sodipodi-0.dtd"
   xmlns:inkscape="http://www.inkscape.org/namespaces/inkscape"
   width="720"
   height="181.33879"
   viewBox="0 0 190.5 47.979223"
   version="1.1"
   id="svg8"
   inkscape:version="0.92.3 (2405546, 2018-03-11)"
   sodipodi:docname="logotipo.svg">
  <defs
     id="defs2" />
  <sodipodi:namedview
     id="base"
     pagecolor="#ffffff"
     bordercolor="#666666"
     borderopacity="1.0"
     inkscape:pageopacity="0.0"
     inkscape:pageshadow="2"
     inkscape:zoom="0.98994949"
     inkscape:cx="147.38759"
     inkscape:cy="4.9334352"
     inkscape:document-units="mm"
     inkscape:current-layer="layer1"
     showgrid="false"
     units="px"
     fit-margin-top="0"
     fit-margin-left="0"
     fit-margin-right="0"
     fit-margin-bottom="0"
     inkscape:window-width="1920"
     inkscape:window-height="1017"
     inkscape:window-x="-8"
     inkscape:window-y="-8"
     inkscape:window-maximized="1" />
  <metadata
     id="metadata5">
    <rdf:RDF>
      <cc:Work
         rdf:about="">
        <dc:format>image/svg+xml</dc:format>
        <dc:type
           rdf:resource="http://purl.org/dc/dcmitype/StillImage" />
        <dc:title></dc:title>
      </cc:Work>
    </rdf:RDF>
  </metadata>
  <g
     inkscape:label="Capa 1"
     inkscape:groupmode="layer"
     id="layer1"
     transform="translate(-77.340113,-213.1188)">
    <path
       style="fill:#000000;stroke-width:0.77177632"
       d="m 77.340113,237.17296 v -23.92507 h 5.016545 5.016547 v 19.2944 19.29442 h 12.734305 12.73431 v 4.63064 4.63067 H 95.090966 77.340113 Z m 57.799397,22.91134 c -7.61484,-2.15713 -14.56701,-9.62558 -16.17631,-17.37755 -2.31239,-11.13869 2.08406,-21.37465 11.5913,-26.98737 2.88067,-1.70064 4.59234,-2.07842 10.60914,-2.34158 6.55537,-0.28672 7.53759,-0.13607 11.38529,1.74647 5.72334,2.80017 10.88319,8.65521 12.48582,14.16804 1.56914,5.39768 1.11455,13.12103 -1.06191,18.0413 -1.99819,4.51723 -7.05695,9.6143 -11.48689,11.57385 -4.35799,1.92777 -12.69825,2.49358 -17.34644,1.17684 z m 15.68885,-10.73145 c 4.78586,-3.65035 7.14874,-11.39144 5.24128,-17.17111 -3.63285,-11.00768 -17.03462,-14.04615 -24.49184,-5.55286 -4.60776,5.24793 -5.09832,12.35649 -1.30009,18.83818 2.74889,4.69093 6.36828,6.44147 12.74855,6.16587 4.13252,-0.17852 5.61472,-0.61169 7.8021,-2.28008 z m 36.71548,10.71204 c -12.78313,-3.61333 -19.72901,-17.44269 -15.6535,-31.16641 1.48999,-5.01734 6.81149,-11.01353 12.12354,-13.66064 6.97099,-3.4738 19.07422,-2.56418 25.35097,1.90523 1.24537,0.88681 2.24986,1.84919 2.23219,2.13864 -0.0175,0.28946 -1.2237,1.87551 -2.68006,3.52456 l -2.64796,2.99831 -3.83014,-1.64768 c -4.16906,-1.79349 -10.20505,-2.15621 -13.7198,-0.8245 -8.81167,3.33864 -11.54565,16.21226 -4.96178,23.36371 3.02401,3.28472 6.16629,4.61765 10.89612,4.62209 6.47132,0.007 7.71445,-0.97187 7.71445,-6.06876 v -4.2176 h -3.08711 -3.0871 v -4.24477 -4.24478 h 8.12427 8.12428 l -0.21352,11.37523 -0.21352,11.37523 -5.01655,2.54875 c -5.94279,3.01935 -13.55925,3.8898 -19.45467,2.22339 z m 49.47013,0.0197 c -7.61484,-2.15715 -14.56702,-9.62558 -16.17632,-17.37754 -2.31239,-11.1387 2.08406,-21.37465 11.59133,-26.98738 2.88065,-1.70064 4.59231,-2.07841 10.60911,-2.34157 6.55537,-0.28673 7.53759,-0.13608 11.3853,1.74647 5.72334,2.80016 10.88321,8.6552 12.48582,14.16804 1.56916,5.39768 1.11455,13.12102 -1.06192,18.0413 -1.99819,4.51723 -7.05692,9.61427 -11.48687,11.57385 -4.35801,1.92777 -12.69824,2.49357 -17.34645,1.17683 z m 15.68885,-10.73145 c 4.78588,-3.65035 7.14874,-11.39144 5.2413,-17.17111 -3.63288,-11.00767 -17.03463,-14.04614 -24.49184,-5.55285 -4.60776,5.24793 -5.09835,12.35648 -1.30009,18.83817 2.74888,4.69094 6.36828,6.44146 12.74852,6.16585 4.13252,-0.17852 5.61472,-0.61166 7.80211,-2.28006 z"
       id="path826"
       inkscape:connector-curvature="0" />
  </g>
</svg>
